<svg width="31" height="24" fill="none" xmlns="http://www.w3.org/2000/svg"><path d="M30.43 4.826C29.438 2.14 27.066.383 24.24.24l-.03-.002h-.415c-3.567 0-6.632 2.197-7.912 5.309C14.602 2.435 11.538.238 7.971.238h-.448C4.703.383 2.34 2.142 1.355 4.83c-1.017 2.775-.324 5.742 1.807 7.74L14.37 23.173a2.3 2.3 0 001.54.59c.554 0 1.104-.2 1.526-.6l1.704-1.608c.428-.428.67-.992.681-1.588a2.2 2.2 0 00-.65-1.612.638.638 0 10-.901.902.972.972 0 01-.019 1.382l-1.692 1.596c-.362.343-.949.337-1.324 0L4.036 11.64c-1.753-1.644-2.32-4.086-1.483-6.372.804-2.194 2.726-3.632 5.02-3.754h.398c4.01 0 7.273 3.263 7.273 7.274a.638.638 0 001.276 0c0-4.011 3.263-7.274 7.274-7.274h.398c2.3.123 4.23 1.56 5.04 3.754.84 2.278.275 4.72-1.486 6.387l-3.573 3.573a2.23 2.23 0 00-.666 1.583c0 .593.236 1.155.665 1.584a.638.638 0 00.903-.902.962.962 0 01-.292-.682c0-.251.104-.493.292-.681l3.56-3.56c2.127-2.012 2.814-4.979 1.794-7.744z" fill="#33485D"/></svg>